# xmcd
#
# Track frame offsets: 
#        150
#        6135
#        19233
#        33521
#        46106
#        69141
#        91846
#        120769
#        139310
#        151272
#
# Disc length: 2317 seconds
#
# Revision: 0
# Processed by: cddbd v1.5.2PL0 Copyright (c) Steve Scherf et al.
# Submitted via: ExactAudioCopy v0.99pb5
#
DISCID=6c090b0a
DTITLE=Sam Cook - One Night Stand! Live at Harlem Square
DYEAR=1963
DGENRE=Rhythmic Soul
TTITLE0=A1 - Soul Twist_Introduction
TTITLE1=A2 - Feel It (Don't Fight It)
TTITLE2=A3 - Chain Gang
TTITLE3=A4 - Cupid
TTITLE4=A5 - Medley_It's All Right_For Sentimental Reasons
TTITLE5=A6 - Twistin' the Night Away
TTITLE6=B1 - Somebody Have Mercy
TTITLE7=B2 - Bring It On Home to Me
TTITLE8=B3 - Nothing Can Change This Love
TTITLE9=B4 - Having a Party
EXTD=
EXTT0=
EXTT1=
EXTT2=
EXTT3=
EXTT4=
EXTT5=
EXTT6=
EXTT7=
EXTT8=
EXTT9=
PLAYORDER=
